<svg xmlns="http://www.w3.org/2000/svg" viewBox="27 118 242 57" role="img" aria-label="Vansh Enterprises">
  <defs>
    <linearGradient gradientTransform="rotate(25)" id="ve-grad" x1="0%" y1="0%" x2="100%" y2="0%">
      <stop offset="0%" stop-color="#085B20"/>
      <stop offset="100%" stop-color="#41E296"/>
    </linearGradient>
  </defs>
  <!-- Gradient icon -->
  <g fill="url(#ve-grad)" transform="matrix(0.4107540004700064,0,0,0.4107540004700064,34.66718089337682,129.50070474850102)">
    <g clip-rule="evenodd">
      <path d="M12.983 10.59l17.018 88.223-5.872-59.049 29.021-1.892-.054-9.883L64.549 1 53.622 18.977z"/>
      <path d="M59.389 54.548l5.16-53.541-8.74 39.716-19.612 1.045 1.57 20.462-7.766 36.583 12.057-39.899z"/>
      <path d="M62.8 67.182l.549-10.453-15.979 3.755-.032 11.797-17.337 26.532 21.68-27.616zM65.711 62.394l14.841-4.731 1.509-12.532-15.899 2.095zM72.07 44.502l10.988-1.417 1.581-10.278-8.079-.373L64.549 1l8.43 30.967z"/>
      <path d="M87.413 31.294l1.256-9.506-9.544-2.694L64.549 1l14.483 22.437-.422 7z"/>
    </g>
  </g>
  <!-- "Vansh Enterprises" wordmark -->
  <g fill="#085B20" transform="matrix(1.3704555399845646,0,0,1.3704555399845646,83.63607570495589,126.29544525363849)">
    <path d="M5.66 10.36L7.59 3.63L9.64 3.63L6.36 13.64L3.59 13.64L0.33 3.63L2.90 3.63L4.84 10.36L5.18 11.81L5.32 11.81L5.66 10.36ZM14.27 12.60L14.27 12.60Q14.07 12.77 13.81 12.97Q13.55 13.18 13.24 13.36Q12.93 13.54 12.58 13.66Q12.24 13.78 11.85 13.78L11.85 13.78Q11.38 13.78 11.02 13.60Q10.66 13.42 10.43 13.13Q10.19 12.83 10.07 12.46Q9.95 12.09 9.95 11.72L9.95 11.72Q9.95 11.22 10.18 10.77Q10.41 10.33 10.90 10.00Q11.38 9.67 12.13 9.47Q12.89 9.28 13.92 9.28L13.92 9.28L14.19 9.28L14.19 8.86Q14.19 8.31 13.85 8.02Q13.51 7.73 12.93 7.73L12.93 7.73Q12.68 7.73 12.40 7.79Q12.13 7.85 11.85 7.96Q11.57 8.07 11.30 8.21Q11.03 8.35 10.80 8.52L10.80 8.52L10.68 8.45L10.27 7.01Q11.16 6.60 11.94 6.43Q12.73 6.26 13.49 6.26L13.49 6.26Q14.14 6.26 14.70 6.38Q15.26 6.51 15.68 6.78Q16.09 7.06 16.33 7.51Q16.57 7.95 16.57 8.60L16.57 8.60L16.57 11.51Q16.57 11.63 16.59 11.75Q16.61 11.87 16.67 11.97Q16.72 12.07 16.82 12.13Q16.91 12.19 17.06 12.19L17.06 12.19Q17.16 12.19 17.25 12.17Q17.34 12.16 17.46 12.11L17.46 12.11L17.46 13.13Q17.01 13.43 16.57 13.61Q16.13 13.78 15.71 13.78L15.71 13.78Q15.17 13.78 14.82 13.47Q14.47 13.17 14.27 12.60ZM14.19 11.70L14.19 10.12L13.93 10.12Q13.39 10.12 13.04 10.20Q12.69 10.27 12.48 10.42Q12.27 10.56 12.19 10.76Q12.11 10.96 12.11 11.22L12.11 11.22Q12.11 11.48 12.18 11.66Q12.26 11.84 12.38 11.96Q12.51 12.08 12.68 12.13Q12.84 12.19 13.03 12.19L13.03 12.19Q13.28 12.19 13.57 12.08Q13.86 11.98 14.19 11.70L14.19 11.70ZM18.73 13.64L18.73 6.40L20.73 6.40L21.02 7.59Q21.25 7.38 21.54 7.15Q21.83 6.92 22.17 6.72Q22.51 6.52 22.89 6.39Q23.28 6.26 23.69 6.26L23.69 6.26Q24.20 6.26 24.61 6.44Q25.03 6.62 25.32 6.95Q25.62 7.28 25.79 7.74Q25.95 8.20 25.95 8.76L25.95 8.76L25.95 13.64L23.57 13.64L23.57 9.11Q23.57 8.80 23.48 8.57Q23.40 8.33 23.25 8.18Q23.11 8.02 22.91 7.94Q22.71 7.86 22.48 7.86L22.48 7.86Q22.11 7.86 21.77 8.05Q21.43 8.23 21.10 8.51L21.10 8.51L21.10 13.64L18.73 13.64ZM27.51 13.28L27.86 11.73L27.98 11.66Q28.55 11.97 29.16 12.14Q29.76 12.31 30.27 12.31L30.27 12.31Q30.55 12.31 30.75 12.25Q30.96 12.20 31.09 12.10Q31.23 12.00 31.29 11.88Q31.36 11.75 31.36 11.61L31.36 11.61Q31.36 11.39 31.20 11.25Q31.05 11.10 30.79 11.00Q30.54 10.90 30.21 10.82Q29.89 10.74 29.55 10.64Q29.21 10.54 28.89 10.40Q28.56 10.27 28.30 10.05Q28.05 9.83 27.89 9.51Q27.74 9.18 27.74 8.72L27.74 8.72Q27.74 8.18 27.96 7.72Q28.18 7.27 28.62 6.95Q29.05 6.62 29.69 6.44Q30.32 6.26 31.16 6.26L31.16 6.26Q31.37 6.26 31.64 6.28Q31.90 6.29 32.18 6.32Q32.46 6.34 32.72 6.39Q32.98 6.44 33.20 6.50L33.20 6.50L32.85 8.04L32.72 8.11Q32.22 7.91 31.74 7.82Q31.26 7.73 30.92 7.73L30.92 7.73Q30.64 7.73 30.44 7.79Q30.24 7.84 30.12 7.93Q30.00 8.03 29.94 8.15Q29.88 8.26 29.88 8.40L29.88 8.40Q29.88 8.64 30.04 8.79Q30.19 8.93 30.45 9.03Q30.70 9.13 31.03 9.21Q31.36 9.29 31.69 9.38Q32.03 9.47 32.36 9.61Q32.69 9.74 32.94 9.96Q33.20 10.18 33.35 10.50Q33.51 10.81 33.51 11.28L33.51 11.28Q33.51 11.78 33.31 12.23Q33.11 12.69 32.70 13.03Q32.29 13.37 31.66 13.58Q31.04 13.78 30.19 13.78L30.19 13.78Q29.87 13.78 29.52 13.75Q29.18 13.72 28.83 13.66Q28.49 13.60 28.15 13.50Q27.81 13.41 27.51 13.28L27.51 13.28ZM35.08 13.64L35.08 2.69L37.45 2.69L37.45 7.55Q37.72 7.32 38.02 7.09Q38.32 6.86 38.64 6.68Q38.97 6.49 39.33 6.38Q39.69 6.26 40.09 6.26L40.09 6.26Q40.57 6.26 40.98 6.44Q41.38 6.62 41.68 6.95Q41.97 7.27 42.13 7.73Q42.29 8.20 42.29 8.76L42.29 8.76L42.29 13.64L39.92 13.64L39.92 9.10Q39.92 8.80 39.83 8.57Q39.75 8.33 39.60 8.18Q39.46 8.02 39.26 7.94Q39.06 7.86 38.83 7.86L38.83 7.86Q38.46 7.86 38.12 8.04Q37.78 8.22 37.45 8.51L37.45 8.51L37.45 13.64L35.08 13.64ZM53.66 13.64L47.33 13.64L47.33 3.63L53.86 3.63L53.59 5.12L49.74 5.12L49.74 7.78L53.10 7.78L52.86 9.17L49.74 9.17L49.74 12.15L53.93 12.15L53.66 13.64ZM55.78 13.64L55.78 6.40L57.78 6.40L58.07 7.59Q58.30 7.38 58.59 7.15Q58.88 6.92 59.22 6.72Q59.56 6.52 59.94 6.39Q60.33 6.26 60.74 6.26L60.74 6.26Q61.25 6.26 61.66 6.44Q62.08 6.62 62.37 6.95Q62.67 7.28 62.84 7.74Q63 8.20 63 8.76L63 8.76L63 13.64L60.62 13.64L60.62 9.11Q60.62 8.80 60.54 8.57Q60.45 8.33 60.30 8.18Q60.16 8.02 59.96 7.94Q59.76 7.86 59.53 7.86L59.53 7.86Q59.16 7.86 58.82 8.05Q58.48 8.23 58.15 8.51L58.15 8.51L58.15 13.64L55.78 13.64ZM65.55 11.27L65.55 7.87L64.09 7.87L64.24 6.86Q64.61 6.73 64.87 6.62Q65.14 6.50 65.34 6.37Q65.54 6.23 65.70 6.08Q65.85 5.92 65.99 5.70Q66.13 5.49 66.27 5.22Q66.42 4.94 66.60 4.57L66.60 4.57L67.78 4.57L67.78 6.40L70.34 6.40L70.01 7.87L67.92 7.87L67.92 10.96Q67.92 11.64 68.27 11.92Q68.63 12.19 69.28 12.19L69.28 12.19Q69.54 12.19 69.81 12.14Q70.08 12.10 70.33 12.00L70.33 12.00L70.33 13.02Q69.80 13.41 69.16 13.59Q68.52 13.78 67.89 13.78L67.89 13.78Q67.26 13.78 66.81 13.61Q66.37 13.43 66.09 13.10Q65.81 12.78 65.68 12.31Q65.55 11.85 65.55 11.27L65.55 11.27ZM78.15 11.87L78.15 12.89Q77.78 13.15 77.39 13.32Q77.01 13.49 76.62 13.60Q76.24 13.70 75.87 13.74Q75.50 13.78 75.16 13.78L75.16 13.78Q74.29 13.78 73.58 13.55Q72.88 13.31 72.39 12.87Q71.89 12.42 71.63 11.77Q71.37 11.12 71.37 10.29L71.37 10.29Q71.37 9.34 71.70 8.60Q72.02 7.85 72.57 7.33Q73.12 6.82 73.85 6.54Q74.57 6.26 75.37 6.26L75.37 6.26Q76.05 6.26 76.63 6.47Q77.21 6.69 77.63 7.10Q78.05 7.51 78.28 8.12Q78.51 8.74 78.51 9.54L78.51 9.54Q78.51 9.80 78.49 10.01Q78.46 10.23 78.43 10.38L78.43 10.38L73.81 10.38Q73.81 10.86 73.98 11.20Q74.14 11.54 74.45 11.76Q74.76 11.98 75.20 12.09Q75.64 12.19 76.18 12.19L76.18 12.19Q76.37 12.19 76.61 12.17Q76.84 12.16 77.10 12.12Q77.36 12.09 77.62 12.03Q77.89 11.97 78.15 11.87L78.15 11.87ZM73.81 9.54L76.36 9.54Q76.36 9.07 76.27 8.73Q76.17 8.39 76.01 8.17Q75.84 7.94 75.62 7.84Q75.39 7.73 75.13 7.73L75.13 7.73Q74.83 7.73 74.59 7.85Q74.35 7.98 74.17 8.21Q74.00 8.44 73.90 8.78Q73.81 9.11 73.81 9.54L73.81 9.54ZM80.14 13.64L80.14 6.40L82.15 6.40L82.43 8.52Q82.54 8.33 82.66 8.12Q82.77 7.92 82.87 7.74Q82.97 7.57 83.05 7.44Q83.13 7.31 83.16 7.25L83.16 7.25Q83.29 7.03 83.45 6.85Q83.62 6.67 83.82 6.54Q84.01 6.41 84.26 6.34Q84.51 6.26 84.81 6.26L84.81 6.26Q85.00 6.26 85.24 6.31Q85.48 6.36 85.67 6.48L85.67 6.48L85.42 8.61Q85.35 8.60 85.25 8.59Q85.15 8.58 85.04 8.57Q84.92 8.57 84.82 8.56Q84.71 8.56 84.63 8.56L84.63 8.56Q83.94 8.56 83.40 8.83Q82.85 9.09 82.52 9.51L82.52 9.51L82.52 13.64L80.14 13.64ZM89.48 8.53L89.48 12.10Q89.76 12.23 90.03 12.27Q90.30 12.31 90.47 12.31L90.47 12.31Q90.92 12.31 91.26 12.12Q91.60 11.92 91.83 11.59Q92.06 11.27 92.18 10.84Q92.29 10.42 92.29 9.97L92.29 9.97Q92.29 9.49 92.19 9.10Q92.09 8.71 91.90 8.43Q91.71 8.16 91.45 8.01Q91.19 7.86 90.88 7.86L90.88 7.86Q90.51 7.86 90.14 8.04Q89.77 8.22 89.48 8.53L89.48 8.53ZM89.12 6.40L89.39 7.53Q89.65 7.29 89.93 7.07Q90.21 6.84 90.51 6.67Q90.82 6.49 91.17 6.37Q91.52 6.26 91.92 6.26L91.92 6.26Q92.57 6.26 93.10 6.55Q93.62 6.84 93.98 7.32Q94.34 7.81 94.53 8.43Q94.73 9.04 94.73 9.70L94.73 9.70Q94.73 10.27 94.58 10.80Q94.44 11.33 94.17 11.78Q93.91 12.24 93.53 12.61Q93.16 12.97 92.71 13.23Q92.25 13.49 91.72 13.64Q91.20 13.78 90.63 13.78L90.63 13.78Q90.47 13.78 90.31 13.77Q90.15 13.76 89.99 13.74Q89.84 13.73 89.70 13.70Q89.57 13.67 89.48 13.64L89.48 13.64L89.48 17.31L87.10 17.31L87.10 6.40L89.12 6.40ZM96.35 13.64L96.35 6.40L98.35 6.40L98.64 8.52Q98.75 8.33 98.86 8.12Q98.97 7.92 99.07 7.74Q99.17 7.57 99.25 7.44Q99.33 7.31 99.36 7.25L99.36 7.25Q99.49 7.03 99.65 6.85Q99.82 6.67 100.02 6.54Q100.21 6.41 100.46 6.34Q100.71 6.26 101.01 6.26L101.01 6.26Q101.21 6.26 101.44 6.31Q101.68 6.36 101.88 6.48L101.88 6.48L101.62 8.61Q101.55 8.60 101.45 8.59Q101.35 8.58 101.24 8.57Q101.12 8.57 101.02 8.56Q100.91 8.56 100.83 8.56L100.83 8.56Q100.14 8.56 99.60 8.83Q99.05 9.09 98.72 9.51L98.72 9.51L98.72 13.64L96.35 13.64ZM103.30 13.64L103.30 6.40L105.68 6.40L105.68 13.64L103.30 13.64ZM104.46 5.26L104.46 5.26Q104.15 5.26 103.91 5.17Q103.66 5.08 103.49 4.92Q103.31 4.76 103.22 4.55Q103.12 4.34 103.12 4.09L103.12 4.09Q103.12 3.84 103.23 3.62Q103.33 3.40 103.52 3.24Q103.70 3.08 103.96 2.98Q104.22 2.88 104.53 2.88L104.53 2.88Q104.83 2.88 105.08 2.98Q105.33 3.07 105.50 3.23Q105.68 3.38 105.77 3.60Q105.87 3.81 105.87 4.05L105.87 4.05Q105.87 4.31 105.76 4.53Q105.66 4.74 105.47 4.91Q105.29 5.07 105.03 5.16Q104.77 5.26 104.46 5.26ZM107.25 13.28L107.59 11.73L107.71 11.66Q108.28 11.97 108.89 12.14Q109.50 12.31 110.00 12.31L110.00 12.31Q110.28 12.31 110.49 12.25Q110.69 12.20 110.83 12.10Q110.96 12.00 111.03 11.88Q111.09 11.75 111.09 11.61L111.09 11.61Q111.09 11.39 110.94 11.25Q110.78 11.10 110.53 11.00Q110.27 10.90 109.95 10.82Q109.62 10.74 109.28 10.64Q108.94 10.54 108.62 10.40Q108.29 10.27 108.04 10.05Q107.78 9.83 107.63 9.51Q107.47 9.18 107.47 8.72L107.47 8.72Q107.47 8.18 107.70 7.72Q107.92 7.27 108.35 6.95Q108.79 6.62 109.42 6.44Q110.06 6.26 110.89 6.26L110.89 6.26Q111.10 6.26 111.37 6.28Q111.64 6.29 111.91 6.32Q112.19 6.34 112.45 6.39Q112.72 6.44 112.93 6.50L112.93 6.50L112.58 8.04L112.45 8.11Q111.96 7.91 111.48 7.82Q111.00 7.73 110.65 7.73L110.65 7.73Q110.37 7.73 110.17 7.79Q109.98 7.84 109.85 7.93Q109.73 8.03 109.67 8.15Q109.61 8.26 109.61 8.40L109.61 8.40Q109.61 8.64 109.77 8.79Q109.93 8.93 110.18 9.03Q110.43 9.13 110.76 9.21Q111.09 9.29 111.43 9.38Q111.77 9.47 112.10 9.61Q112.42 9.74 112.68 9.96Q112.93 10.18 113.09 10.50Q113.24 10.81 113.24 11.28L113.24 11.28Q113.24 11.78 113.04 12.23Q112.84 12.69 112.43 13.03Q112.02 13.37 111.40 13.58Q110.77 13.78 109.92 13.78L109.92 13.78Q109.60 13.78 109.26 13.75Q108.91 13.72 108.56 13.66Q108.22 13.60 107.88 13.50Q107.54 13.41 107.25 13.28L107.25 13.28ZM121.17 11.87L121.17 12.89Q120.80 13.15 120.41 13.32Q120.03 13.49 119.64 13.60Q119.26 13.70 118.89 13.74Q118.52 13.78 118.18 13.78L118.18 13.78Q117.30 13.78 116.60 13.55Q115.90 13.31 115.40 12.87Q114.91 12.42 114.65 11.77Q114.39 11.12 114.39 10.29L114.39 10.29Q114.39 9.34 114.71 8.60Q115.04 7.85 115.59 7.33Q116.14 6.82 116.87 6.54Q117.59 6.26 118.38 6.26L118.38 6.26Q119.07 6.26 119.65 6.47Q120.22 6.69 120.64 7.10Q121.06 7.51 121.30 8.12Q121.53 8.74 121.53 9.54L121.53 9.54Q121.53 9.80 121.51 10.01Q121.48 10.23 121.45 10.38L121.45 10.38L116.83 10.38Q116.83 10.86 116.99 11.20Q117.16 11.54 117.47 11.76Q117.78 11.98 118.22 12.09Q118.66 12.19 119.20 12.19L119.20 12.19Q119.39 12.19 119.63 12.17Q119.86 12.16 120.12 12.12Q120.37 12.09 120.64 12.03Q120.91 11.97 121.17 11.87L121.17 11.87ZM116.83 9.54L119.38 9.54Q119.38 9.07 119.28 8.73Q119.19 8.39 119.03 8.17Q118.86 7.94 118.64 7.84Q118.41 7.73 118.15 7.73L118.15 7.73Q117.85 7.73 117.61 7.85Q117.37 7.98 117.19 8.21Q117.02 8.44 116.92 8.78Q116.83 9.11 116.83 9.54L116.83 9.54ZM122.69 13.28L123.03 11.73L123.16 11.66Q123.72 11.97 124.33 12.14Q124.94 12.31 125.45 12.31L125.45 12.31Q125.73 12.31 125.93 12.25Q126.14 12.20 126.27 12.10Q126.40 12.00 126.47 11.88Q126.53 11.75 126.53 11.61L126.53 11.61Q126.53 11.39 126.38 11.25Q126.23 11.10 125.97 11.00Q125.71 10.90 125.39 10.82Q125.06 10.74 124.73 10.64Q124.39 10.54 124.06 10.40Q123.74 10.27 123.48 10.05Q123.22 9.83 123.07 9.51Q122.92 9.18 122.92 8.72L122.92 8.72Q122.92 8.18 123.14 7.72Q123.36 7.27 123.80 6.95Q124.23 6.62 124.87 6.44Q125.50 6.26 126.33 6.26L126.33 6.26Q126.55 6.26 126.81 6.28Q127.08 6.29 127.36 6.32Q127.63 6.34 127.90 6.39Q128.16 6.44 128.37 6.50L128.37 6.50L128.02 8.04L127.89 8.11Q127.40 7.91 126.92 7.82Q126.44 7.73 126.10 7.73L126.10 7.73Q125.82 7.73 125.62 7.79Q125.42 7.84 125.30 7.93Q125.17 8.03 125.11 8.15Q125.06 8.26 125.06 8.40L125.06 8.40Q125.06 8.64 125.21 8.79Q125.37 8.93 125.62 9.03Q125.88 9.13 126.21 9.21Q126.53 9.29 126.87 9.38Q127.21 9.47 127.54 9.61Q127.87 9.74 128.12 9.96Q128.37 10.18 128.53 10.50Q128.69 10.81 128.69 11.28L128.69 11.28Q128.69 11.78 128.48 12.23Q128.28 12.69 127.87 13.03Q127.46 13.37 126.84 13.58Q126.21 13.78 125.36 13.78L125.36 13.78Q125.04 13.78 124.70 13.75Q124.35 13.72 124.01 13.66Q123.66 13.60 123.32 13.50Q122.99 13.41 122.69 13.28L122.69 13.28Z"/>
  </g>
</svg>
