<svg data-v-423bf9ae="" xmlns="http://www.w3.org/2000/svg" viewBox="0 0 630 107" class="iconLeftSlogan"><!----><!----><!----><g data-v-423bf9ae="" id="e015541b-ff2a-46dd-bdb5-c0cd86ab262a" fill="white" transform="matrix(4.1039674680923515,0,0,4.1039674680923515,100.9020652137637,-11.03967320083649)"><path d="M5.66 10.36L7.59 3.63L9.64 3.63L6.36 13.64L3.59 13.64L0.33 3.63L2.90 3.63L4.84 10.36L5.18 11.81L5.32 11.81L5.66 10.36ZM14.27 12.60L14.27 12.60Q14.07 12.77 13.81 12.97Q13.55 13.18 13.24 13.36Q12.93 13.54 12.58 13.66Q12.24 13.78 11.85 13.78L11.85 13.78Q11.38 13.78 11.02 13.60Q10.66 13.42 10.43 13.13Q10.19 12.83 10.07 12.46Q9.95 12.09 9.95 11.72L9.95 11.72Q9.95 11.22 10.18 10.77Q10.41 10.33 10.90 10.00Q11.38 9.67 12.13 9.47Q12.89 9.28 13.92 9.28L13.92 9.28L14.19 9.28L14.19 8.86Q14.19 8.31 13.85 8.02Q13.51 7.73 12.93 7.73L12.93 7.73Q12.68 7.73 12.40 7.79Q12.13 7.85 11.85 7.96Q11.57 8.07 11.30 8.21Q11.03 8.35 10.80 8.52L10.80 8.52L10.68 8.45L10.27 7.01Q11.16 6.60 11.94 6.43Q12.73 6.26 13.49 6.26L13.49 6.26Q14.14 6.26 14.70 6.38Q15.26 6.51 15.68 6.78Q16.09 7.06 16.33 7.51Q16.57 7.95 16.57 8.60L16.57 8.60L16.57 11.51Q16.57 11.63 16.59 11.75Q16.61 11.87 16.67 11.97Q16.72 12.07 16.82 12.13Q16.91 12.19 17.06 12.19L17.06 12.19Q17.16 12.19 17.25 12.17Q17.34 12.16 17.46 12.11L17.46 12.11L17.46 13.13Q17.01 13.43 16.57 13.61Q16.13 13.78 15.71 13.78L15.71 13.78Q15.17 13.78 14.82 13.47Q14.47 13.17 14.27 12.60ZM14.19 11.70L14.19 10.12L13.93 10.12Q13.39 10.12 13.04 10.20Q12.69 10.27 12.48 10.42Q12.27 10.56 12.19 10.76Q12.11 10.96 12.11 11.22L12.11 11.22Q12.11 11.48 12.18 11.66Q12.26 11.84 12.38 11.96Q12.51 12.08 12.68 12.13Q12.84 12.19 13.03 12.19L13.03 12.19Q13.28 12.19 13.57 12.08Q13.86 11.98 14.19 11.70L14.19 11.70ZM18.73 13.64L18.73 6.40L20.73 6.40L21.02 7.59Q21.25 7.38 21.54 7.15Q21.83 6.92 22.17 6.72Q22.51 6.52 22.89 6.39Q23.28 6.26 23.69 6.26L23.69 6.26Q24.20 6.26 24.61 6.44Q25.03 6.62 25.32 6.95Q25.62 7.28 25.79 7.74Q25.95 8.20 25.95 8.76L25.95 8.76L25.95 13.64L23.57 13.64L23.57 9.11Q23.57 8.80 23.48 8.57Q23.40 8.33 23.25 8.18Q23.11 8.02 22.91 7.94Q22.71 7.86 22.48 7.86L22.48 7.86Q22.11 7.86 21.77 8.05Q21.43 8.23 21.10 8.51L21.10 8.51L21.10 13.64L18.73 13.64ZM27.51 13.28L27.86 11.73L27.98 11.66Q28.55 11.97 29.16 12.14Q29.76 12.31 30.27 12.31L30.27 12.31Q30.55 12.31 30.75 12.25Q30.96 12.20 31.09 12.10Q31.23 12.00 31.29 11.88Q31.36 11.75 31.36 11.61L31.36 11.61Q31.36 11.39 31.20 11.25Q31.05 11.10 30.79 11.00Q30.54 10.90 30.21 10.82Q29.89 10.74 29.55 10.64Q29.21 10.54 28.89 10.40Q28.56 10.27 28.30 10.05Q28.05 9.83 27.89 9.51Q27.74 9.18 27.74 8.72L27.74 8.72Q27.74 8.18 27.96 7.72Q28.18 7.27 28.62 6.95Q29.05 6.62 29.69 6.44Q30.32 6.26 31.16 6.26L31.16 6.26Q31.37 6.26 31.64 6.28Q31.90 6.29 32.18 6.32Q32.46 6.34 32.72 6.39Q32.98 6.44 33.20 6.50L33.20 6.50L32.85 8.04L32.72 8.11Q32.22 7.91 31.74 7.82Q31.26 7.73 30.92 7.73L30.92 7.73Q30.64 7.73 30.44 7.79Q30.24 7.84 30.12 7.93Q30.00 8.03 29.94 8.15Q29.88 8.26 29.88 8.40L29.88 8.40Q29.88 8.64 30.04 8.79Q30.19 8.93 30.45 9.03Q30.70 9.13 31.03 9.21Q31.36 9.29 31.69 9.38Q32.03 9.47 32.36 9.61Q32.69 9.74 32.94 9.96Q33.20 10.18 33.35 10.50Q33.51 10.81 33.51 11.28L33.51 11.28Q33.51 11.78 33.31 12.23Q33.11 12.69 32.70 13.03Q32.29 13.37 31.66 13.58Q31.04 13.78 30.19 13.78L30.19 13.78Q29.87 13.78 29.52 13.75Q29.18 13.72 28.83 13.66Q28.49 13.60 28.15 13.50Q27.81 13.41 27.51 13.28L27.51 13.28ZM35.08 13.64L35.08 2.69L37.45 2.69L37.45 7.55Q37.72 7.32 38.02 7.09Q38.32 6.86 38.64 6.68Q38.97 6.49 39.33 6.38Q39.69 6.26 40.09 6.26L40.09 6.26Q40.57 6.26 40.98 6.44Q41.38 6.62 41.68 6.95Q41.97 7.27 42.13 7.73Q42.29 8.20 42.29 8.76L42.29 8.76L42.29 13.64L39.92 13.64L39.92 9.10Q39.92 8.80 39.83 8.57Q39.75 8.33 39.60 8.18Q39.46 8.02 39.26 7.94Q39.06 7.86 38.83 7.86L38.83 7.86Q38.46 7.86 38.12 8.04Q37.78 8.22 37.45 8.51L37.45 8.51L37.45 13.64L35.08 13.64ZM53.66 13.64L47.33 13.64L47.33 3.63L53.86 3.63L53.59 5.12L49.74 5.12L49.74 7.78L53.10 7.78L52.86 9.17L49.74 9.17L49.74 12.15L53.93 12.15L53.66 13.64ZM55.78 13.64L55.78 6.40L57.78 6.40L58.07 7.59Q58.30 7.38 58.59 7.15Q58.88 6.92 59.22 6.72Q59.56 6.52 59.94 6.39Q60.33 6.26 60.74 6.26L60.74 6.26Q61.25 6.26 61.66 6.44Q62.08 6.62 62.37 6.95Q62.67 7.28 62.84 7.74Q63 8.20 63 8.76L63 8.76L63 13.64L60.62 13.64L60.62 9.11Q60.62 8.80 60.54 8.57Q60.45 8.33 60.30 8.18Q60.16 8.02 59.96 7.94Q59.76 7.86 59.53 7.86L59.53 7.86Q59.16 7.86 58.82 8.05Q58.48 8.23 58.15 8.51L58.15 8.51L58.15 13.64L55.78 13.64ZM65.55 11.27L65.55 7.87L64.09 7.87L64.24 6.86Q64.61 6.73 64.87 6.62Q65.14 6.50 65.34 6.37Q65.54 6.23 65.70 6.08Q65.85 5.92 65.99 5.70Q66.13 5.49 66.27 5.22Q66.42 4.94 66.60 4.57L66.60 4.57L67.78 4.57L67.78 6.40L70.34 6.40L70.01 7.87L67.92 7.87L67.92 10.96Q67.92 11.64 68.27 11.92Q68.63 12.19 69.28 12.19L69.28 12.19Q69.54 12.19 69.81 12.14Q70.08 12.10 70.33 12.00L70.33 12.00L70.33 13.02Q69.80 13.41 69.16 13.59Q68.52 13.78 67.89 13.78L67.89 13.78Q67.26 13.78 66.81 13.61Q66.37 13.43 66.09 13.10Q65.81 12.78 65.68 12.31Q65.55 11.85 65.55 11.27L65.55 11.27ZM78.15 11.87L78.15 12.89Q77.78 13.15 77.39 13.32Q77.01 13.49 76.62 13.60Q76.24 13.70 75.87 13.74Q75.50 13.78 75.16 13.78L75.16 13.78Q74.29 13.78 73.58 13.55Q72.88 13.31 72.39 12.87Q71.89 12.42 71.63 11.77Q71.37 11.12 71.37 10.29L71.37 10.29Q71.37 9.34 71.70 8.60Q72.02 7.85 72.57 7.33Q73.12 6.82 73.85 6.54Q74.57 6.26 75.37 6.26L75.37 6.26Q76.05 6.26 76.63 6.47Q77.21 6.69 77.63 7.10Q78.05 7.51 78.28 8.12Q78.51 8.74 78.51 9.54L78.51 9.54Q78.51 9.80 78.49 10.01Q78.46 10.23 78.43 10.38L78.43 10.38L73.81 10.38Q73.81 10.86 73.98 11.20Q74.14 11.54 74.45 11.76Q74.76 11.98 75.20 12.09Q75.64 12.19 76.18 12.19L76.18 12.19Q76.37 12.19 76.61 12.17Q76.84 12.16 77.10 12.12Q77.36 12.09 77.62 12.03Q77.89 11.97 78.15 11.87L78.15 11.87ZM73.81 9.54L76.36 9.54Q76.36 9.07 76.27 8.73Q76.17 8.39 76.01 8.17Q75.84 7.94 75.62 7.84Q75.39 7.73 75.13 7.73L75.13 7.73Q74.83 7.73 74.59 7.85Q74.35 7.98 74.17 8.21Q74.00 8.44 73.90 8.78Q73.81 9.11 73.81 9.54L73.81 9.54ZM80.14 13.64L80.14 6.40L82.15 6.40L82.43 8.52Q82.54 8.33 82.66 8.12Q82.77 7.92 82.87 7.74Q82.97 7.57 83.05 7.44Q83.13 7.31 83.16 7.25L83.16 7.25Q83.29 7.03 83.45 6.85Q83.62 6.67 83.82 6.54Q84.01 6.41 84.26 6.34Q84.51 6.26 84.81 6.26L84.81 6.26Q85.00 6.26 85.24 6.31Q85.48 6.36 85.67 6.48L85.67 6.48L85.42 8.61Q85.35 8.60 85.25 8.59Q85.15 8.58 85.04 8.57Q84.92 8.57 84.82 8.56Q84.71 8.56 84.63 8.56L84.63 8.56Q83.94 8.56 83.40 8.83Q82.85 9.09 82.52 9.51L82.52 9.51L82.52 13.64L80.14 13.64ZM89.48 8.53L89.48 12.10Q89.76 12.23 90.03 12.27Q90.30 12.31 90.47 12.31L90.47 12.31Q90.92 12.31 91.26 12.12Q91.60 11.92 91.83 11.59Q92.06 11.27 92.18 10.84Q92.29 10.42 92.29 9.97L92.29 9.97Q92.29 9.49 92.19 9.10Q92.09 8.71 91.90 8.43Q91.71 8.16 91.45 8.01Q91.19 7.86 90.88 7.86L90.88 7.86Q90.51 7.86 90.14 8.04Q89.77 8.22 89.48 8.53L89.48 8.53ZM89.12 6.40L89.39 7.53Q89.65 7.29 89.93 7.07Q90.21 6.84 90.51 6.67Q90.82 6.49 91.17 6.37Q91.52 6.26 91.92 6.26L91.92 6.26Q92.57 6.26 93.10 6.55Q93.62 6.84 93.98 7.32Q94.34 7.81 94.53 8.43Q94.73 9.04 94.73 9.70L94.73 9.70Q94.73 10.27 94.58 10.80Q94.44 11.33 94.17 11.78Q93.91 12.24 93.53 12.61Q93.16 12.97 92.71 13.23Q92.25 13.49 91.72 13.64Q91.20 13.78 90.63 13.78L90.63 13.78Q90.47 13.78 90.31 13.77Q90.15 13.76 89.99 13.74Q89.84 13.73 89.70 13.70Q89.57 13.67 89.48 13.64L89.48 13.64L89.48 17.31L87.10 17.31L87.10 6.40L89.12 6.40ZM96.35 13.64L96.35 6.40L98.35 6.40L98.64 8.52Q98.75 8.33 98.86 8.12Q98.97 7.92 99.07 7.74Q99.17 7.57 99.25 7.44Q99.33 7.31 99.36 7.25L99.36 7.25Q99.49 7.03 99.65 6.85Q99.82 6.67 100.02 6.54Q100.21 6.41 100.46 6.34Q100.71 6.26 101.01 6.26L101.01 6.26Q101.21 6.26 101.44 6.31Q101.68 6.36 101.88 6.48L101.88 6.48L101.62 8.61Q101.55 8.60 101.45 8.59Q101.35 8.58 101.24 8.57Q101.12 8.57 101.02 8.56Q100.91 8.56 100.83 8.56L100.83 8.56Q100.14 8.56 99.60 8.83Q99.05 9.09 98.72 9.51L98.72 9.51L98.72 13.64L96.35 13.64ZM103.30 13.64L103.30 6.40L105.68 6.40L105.68 13.64L103.30 13.64ZM104.46 5.26L104.46 5.26Q104.15 5.26 103.91 5.17Q103.66 5.08 103.49 4.92Q103.31 4.76 103.22 4.55Q103.12 4.34 103.12 4.09L103.12 4.09Q103.12 3.84 103.23 3.62Q103.33 3.40 103.52 3.24Q103.70 3.08 103.96 2.98Q104.22 2.88 104.53 2.88L104.53 2.88Q104.83 2.88 105.08 2.98Q105.33 3.07 105.50 3.23Q105.68 3.38 105.77 3.60Q105.87 3.81 105.87 4.05L105.87 4.05Q105.87 4.31 105.76 4.53Q105.66 4.74 105.47 4.91Q105.29 5.07 105.03 5.16Q104.77 5.26 104.46 5.26ZM107.25 13.28L107.59 11.73L107.71 11.66Q108.28 11.97 108.89 12.14Q109.50 12.31 110.00 12.31L110.00 12.31Q110.28 12.31 110.49 12.25Q110.69 12.20 110.83 12.10Q110.96 12.00 111.03 11.88Q111.09 11.75 111.09 11.61L111.09 11.61Q111.09 11.39 110.94 11.25Q110.78 11.10 110.53 11.00Q110.27 10.90 109.95 10.82Q109.62 10.74 109.28 10.64Q108.94 10.54 108.62 10.40Q108.29 10.27 108.04 10.05Q107.78 9.83 107.63 9.51Q107.47 9.18 107.47 8.72L107.47 8.72Q107.47 8.18 107.70 7.72Q107.92 7.27 108.35 6.95Q108.79 6.62 109.42 6.44Q110.06 6.26 110.89 6.26L110.89 6.26Q111.10 6.26 111.37 6.28Q111.64 6.29 111.91 6.32Q112.19 6.34 112.45 6.39Q112.72 6.44 112.93 6.50L112.93 6.50L112.58 8.04L112.45 8.11Q111.96 7.91 111.48 7.82Q111.00 7.73 110.65 7.73L110.65 7.73Q110.37 7.73 110.17 7.79Q109.98 7.84 109.85 7.93Q109.73 8.03 109.67 8.15Q109.61 8.26 109.61 8.40L109.61 8.40Q109.61 8.64 109.77 8.79Q109.93 8.93 110.18 9.03Q110.43 9.13 110.76 9.21Q111.09 9.29 111.43 9.38Q111.77 9.47 112.10 9.61Q112.42 9.74 112.68 9.96Q112.93 10.18 113.09 10.50Q113.24 10.81 113.24 11.28L113.24 11.28Q113.24 11.78 113.04 12.23Q112.84 12.69 112.43 13.03Q112.02 13.37 111.40 13.58Q110.77 13.78 109.92 13.78L109.92 13.78Q109.60 13.78 109.26 13.75Q108.91 13.72 108.56 13.66Q108.22 13.60 107.88 13.50Q107.54 13.41 107.25 13.28L107.25 13.28ZM121.17 11.87L121.17 12.89Q120.80 13.15 120.41 13.32Q120.03 13.49 119.64 13.60Q119.26 13.70 118.89 13.74Q118.52 13.78 118.18 13.78L118.18 13.78Q117.30 13.78 116.60 13.55Q115.90 13.31 115.40 12.87Q114.91 12.42 114.65 11.77Q114.39 11.12 114.39 10.29L114.39 10.29Q114.39 9.34 114.71 8.60Q115.04 7.85 115.59 7.33Q116.14 6.82 116.87 6.54Q117.59 6.26 118.38 6.26L118.38 6.26Q119.07 6.26 119.65 6.47Q120.22 6.69 120.64 7.10Q121.06 7.51 121.30 8.12Q121.53 8.74 121.53 9.54L121.53 9.54Q121.53 9.80 121.51 10.01Q121.48 10.23 121.45 10.38L121.45 10.38L116.83 10.38Q116.83 10.86 116.99 11.20Q117.16 11.54 117.47 11.76Q117.78 11.98 118.22 12.09Q118.66 12.19 119.20 12.19L119.20 12.19Q119.39 12.19 119.63 12.17Q119.86 12.16 120.12 12.12Q120.37 12.09 120.64 12.03Q120.91 11.97 121.17 11.87L121.17 11.87ZM116.83 9.54L119.38 9.54Q119.38 9.07 119.28 8.73Q119.19 8.39 119.03 8.17Q118.86 7.94 118.64 7.84Q118.41 7.73 118.15 7.73L118.15 7.73Q117.85 7.73 117.61 7.85Q117.37 7.98 117.19 8.21Q117.02 8.44 116.92 8.78Q116.83 9.11 116.83 9.54L116.83 9.54ZM122.69 13.28L123.03 11.73L123.16 11.66Q123.72 11.97 124.33 12.14Q124.94 12.31 125.45 12.31L125.45 12.31Q125.73 12.31 125.93 12.25Q126.14 12.20 126.27 12.10Q126.40 12.00 126.47 11.88Q126.53 11.75 126.53 11.61L126.53 11.61Q126.53 11.39 126.38 11.25Q126.23 11.10 125.97 11.00Q125.71 10.90 125.39 10.82Q125.06 10.74 124.73 10.64Q124.39 10.54 124.06 10.40Q123.74 10.27 123.48 10.05Q123.22 9.83 123.07 9.51Q122.92 9.18 122.92 8.72L122.92 8.72Q122.92 8.18 123.14 7.72Q123.36 7.27 123.80 6.95Q124.23 6.62 124.87 6.44Q125.50 6.26 126.33 6.26L126.33 6.26Q126.55 6.26 126.81 6.28Q127.08 6.29 127.36 6.32Q127.63 6.34 127.90 6.39Q128.16 6.44 128.37 6.50L128.37 6.50L128.02 8.04L127.89 8.11Q127.40 7.91 126.92 7.82Q126.44 7.73 126.10 7.73L126.10 7.73Q125.82 7.73 125.62 7.79Q125.42 7.84 125.30 7.93Q125.17 8.03 125.11 8.15Q125.06 8.26 125.06 8.40L125.06 8.40Q125.06 8.64 125.21 8.79Q125.37 8.93 125.62 9.03Q125.88 9.13 126.21 9.21Q126.53 9.29 126.87 9.38Q127.21 9.47 127.54 9.61Q127.87 9.74 128.12 9.96Q128.37 10.18 128.53 10.50Q128.69 10.81 128.69 11.28L128.69 11.28Q128.69 11.78 128.48 12.23Q128.28 12.69 127.87 13.03Q127.46 13.37 126.84 13.58Q126.21 13.78 125.36 13.78L125.36 13.78Q125.04 13.78 124.70 13.75Q124.35 13.72 124.01 13.66Q123.66 13.60 123.32 13.50Q122.99 13.41 122.69 13.28L122.69 13.28Z"></path></g><!----><g data-v-423bf9ae="" id="c9a059f9-8f31-4a8f-a05d-8abb724d327b" transform="matrix(1.0868111504448785,0,0,1.0868111504448785,-13.255261890115804,-0.23894260335429607)" stroke="none" fill="white"><g clip-rule="evenodd"><path d="M12.983 10.59l17.018 88.223-5.872-59.049 29.021-1.892-.054-9.883L64.549 1 53.622 18.977z"></path><path d="M59.389 54.548l5.16-53.541-8.74 39.716-19.612 1.045 1.57 20.462-7.766 36.583 12.057-39.899z"></path><path d="M62.8 67.182l.549-10.453-15.979 3.755-.032 11.797-17.337 26.532 21.68-27.616zM65.711 62.394l14.841-4.731 1.509-12.532-15.899 2.095zM72.07 44.502l10.988-1.417 1.581-10.278-8.079-.373L64.549 1l8.43 30.967z"></path><path d="M87.413 31.294l1.256-9.506-9.544-2.694L64.549 1l14.483 22.437-.422 7z"></path></g></g><!----><g data-v-423bf9ae="" id="f69e2ec5-35d8-4152-b5cc-d99f400142ac" fill="white" transform="matrix(1.3269985222279754,0,0,1.3269985222279754,99.82797367750908,53.72329627210985)"><path d="M1.83 14.38L1.83 14.38Q1.83 13.87 2.00 13.07Q2.16 12.26 2.42 11.33Q2.67 10.40 3.01 9.43Q3.35 8.46 3.70 7.60Q4.05 6.75 4.38 6.10Q4.72 5.46 4.98 5.18L4.98 5.18Q5.12 5.19 5.36 5.29Q5.59 5.38 5.82 5.50Q6.06 5.63 6.26 5.78Q6.45 5.92 6.51 6.05L6.51 6.05Q6.10 6.41 5.71 7.15Q5.31 7.88 4.94 8.82Q4.56 9.76 4.24 10.80Q3.92 11.84 3.68 12.82Q3.44 13.80 3.31 14.64Q3.18 15.48 3.18 16.00L3.18 16.00Q3.18 16.24 3.22 16.30L3.22 16.30Q2.91 16.28 2.77 16.19Q2.63 16.10 2.56 16.00Q2.48 15.89 2.42 15.79Q2.35 15.68 2.23 15.62L2.23 15.62Q2.13 15.58 2.06 15.43Q1.99 15.27 1.94 15.09Q1.89 14.90 1.86 14.70Q1.83 14.50 1.83 14.38ZM14.07 16.24L14.07 16.24Q13.27 16.00 12.99 15.79Q12.71 15.57 12.71 15.19L12.71 15.19Q12.71 14.77 12.91 14.01Q13.10 13.24 13.42 12.31Q13.73 11.37 14.14 10.35Q14.55 9.32 14.97 8.39Q15.39 7.45 15.79 6.67Q16.18 5.89 16.49 5.46L16.49 5.46L16.39 4.87Q16.59 4.87 16.94 4.97Q17.29 5.07 17.65 5.21Q18.00 5.35 18.28 5.49Q18.55 5.64 18.58 5.74L18.58 5.74Q18.51 6.08 18.47 6.76Q18.42 7.43 18.42 8.20L18.42 8.20Q18.42 9.73 18.54 11.19Q18.66 12.66 19.10 14.17L19.10 14.17Q19.32 13.05 19.58 11.94Q19.84 10.82 20.12 9.81Q20.40 8.79 20.68 7.92Q20.96 7.06 21.22 6.40Q21.48 5.75 21.70 5.38Q21.92 5.01 22.11 4.98L22.11 4.98Q22.26 5.01 22.44 5.10Q22.62 5.19 22.79 5.32Q22.96 5.45 23.10 5.60Q23.24 5.75 23.32 5.91L23.32 5.91Q22.88 6.09 22.44 6.76Q21.99 7.43 21.59 8.39Q21.20 9.35 20.85 10.47Q20.51 11.59 20.25 12.68Q19.99 13.76 19.84 14.69Q19.70 15.61 19.68 16.17L19.68 16.17Q19.68 16.20 19.70 16.21L19.70 16.21Q19.66 16.23 19.61 16.23Q19.56 16.23 19.52 16.23L19.52 16.23Q18.87 16.23 18.38 16.07Q17.88 15.90 17.72 15.61L17.72 15.61Q17.43 14.43 17.23 13.34Q17.04 12.25 16.91 11.16Q16.77 10.07 16.70 8.95Q16.62 7.84 16.58 6.62L16.58 6.62Q16.31 7.04 16.02 7.72Q15.72 8.40 15.44 9.21Q15.16 10.02 14.90 10.92Q14.64 11.82 14.45 12.67Q14.25 13.52 14.14 14.29Q14.03 15.05 14.03 15.61L14.03 15.61Q14.03 15.90 14.04 16.03Q14.04 16.16 14.07 16.24ZM30.63 16.24L30.63 16.24Q29.83 16.00 29.55 15.79Q29.27 15.57 29.27 15.19L29.27 15.19Q29.27 14.77 29.47 14.01Q29.67 13.24 29.98 12.31Q30.30 11.37 30.70 10.35Q31.11 9.32 31.53 8.39Q31.95 7.45 32.35 6.67Q32.75 5.89 33.05 5.46L33.05 5.46L32.96 4.87Q33.15 4.87 33.50 4.97Q33.85 5.07 34.21 5.21Q34.57 5.35 34.84 5.49Q35.11 5.64 35.14 5.74L35.14 5.74Q35.07 6.08 35.03 6.76Q34.99 7.43 34.99 8.20L34.99 8.20Q34.99 9.73 35.11 11.19Q35.22 12.66 35.66 14.17L35.66 14.17Q35.88 13.05 36.14 11.94Q36.40 10.82 36.68 9.81Q36.96 8.79 37.24 7.92Q37.52 7.06 37.78 6.40Q38.04 5.75 38.26 5.38Q38.49 5.01 38.67 4.98L38.67 4.98Q38.82 5.01 39.00 5.10Q39.19 5.19 39.35 5.32Q39.52 5.45 39.66 5.60Q39.80 5.75 39.89 5.91L39.89 5.91Q39.44 6.09 39.00 6.76Q38.56 7.43 38.16 8.39Q37.76 9.35 37.41 10.47Q37.07 11.59 36.81 12.68Q36.55 13.76 36.41 14.69Q36.26 15.61 36.25 16.17L36.25 16.17Q36.25 16.20 36.26 16.21L36.26 16.21Q36.22 16.23 36.17 16.23Q36.12 16.23 36.08 16.23L36.08 16.23Q35.43 16.23 34.94 16.07Q34.44 15.90 34.29 15.61L34.29 15.61Q33.99 14.43 33.80 13.34Q33.60 12.25 33.47 11.16Q33.33 10.07 33.26 8.95Q33.18 7.84 33.14 6.62L33.14 6.62Q32.87 7.04 32.58 7.72Q32.28 8.40 32.00 9.21Q31.72 10.02 31.46 10.92Q31.21 11.82 31.01 12.67Q30.81 13.52 30.70 14.29Q30.59 15.05 30.59 15.61L30.59 15.61Q30.59 15.90 30.60 16.03Q30.60 16.16 30.63 16.24ZM52.40 4.98L52.40 4.98Q52.67 5.10 52.95 5.27Q53.23 5.45 53.47 5.63Q53.70 5.81 53.86 5.98Q54.03 6.16 54.04 6.27L54.04 6.27Q53.80 6.22 53.56 6.20Q53.33 6.17 53.13 6.17L53.13 6.17Q52.50 6.17 51.88 6.48Q51.25 6.79 50.69 7.32Q50.13 7.85 49.66 8.57Q49.18 9.28 48.84 10.09Q48.50 10.91 48.30 11.77Q48.10 12.64 48.10 13.48L48.10 13.48Q48.10 14.57 48.47 15.11Q48.83 15.64 49.53 15.64L49.53 15.64Q49.87 15.64 50.26 15.51Q50.65 15.37 51.06 15.13Q51.46 14.90 51.86 14.56Q52.25 14.22 52.58 13.82L52.58 13.82Q53.07 13.23 53.47 12.48Q53.86 11.73 54.13 10.89Q54.40 10.05 54.55 9.16Q54.70 8.27 54.70 7.42L54.70 7.42Q54.70 7.08 54.68 6.85Q54.67 6.62 54.65 6.46Q54.63 6.30 54.61 6.20Q54.60 6.10 54.59 6.03L54.59 6.03Q54.75 6.12 54.96 6.24Q55.16 6.36 55.34 6.59Q55.51 6.82 55.63 7.20Q55.75 7.57 55.75 8.18L55.75 8.18Q55.75 9.16 55.52 10.10Q55.29 11.05 54.87 11.90Q54.46 12.75 53.90 13.50Q53.34 14.24 52.70 14.80L52.70 14.80Q51.86 15.54 50.90 15.95Q49.95 16.35 49.07 16.35L49.07 16.35Q47.78 16.35 47.10 15.53Q46.42 14.71 46.42 13.12L46.42 13.12Q46.42 12.26 46.61 11.31Q46.80 10.36 47.14 9.44Q47.49 8.51 47.96 7.68Q48.44 6.85 49.01 6.21Q49.57 5.57 50.23 5.19Q50.88 4.82 51.56 4.82L51.56 4.82Q51.79 4.82 51.98 4.85Q52.18 4.89 52.40 4.98ZM67.31 16.07L67.31 16.07Q66.99 16.24 66.63 16.24L66.63 16.24Q66.18 16.18 65.77 16.02Q65.35 15.85 65.16 15.61L65.16 15.61Q65.04 14.92 64.97 14.35Q64.90 13.78 64.86 13.27Q64.82 12.75 64.81 12.29Q64.79 11.82 64.79 11.34L64.79 11.34Q64.79 10.71 64.81 10.01Q64.82 9.31 64.84 8.52Q64.86 7.73 64.88 6.82Q64.89 5.92 64.89 4.86L64.89 4.86Q65.07 4.86 65.44 4.96Q65.80 5.07 66.16 5.21Q66.51 5.35 66.79 5.49Q67.07 5.64 67.10 5.74L67.10 5.74Q66.96 6.13 66.86 6.76Q66.75 7.39 66.69 8.16Q66.63 8.93 66.60 9.79Q66.57 10.64 66.57 11.48L66.57 11.48Q66.57 12.11 66.58 12.61Q66.60 13.10 66.62 13.50Q66.64 13.90 66.68 14.25Q66.72 14.59 66.78 14.92L66.78 14.92Q67.17 13.73 67.64 12.54Q68.11 11.35 68.61 10.25Q69.10 9.16 69.59 8.20Q70.08 7.25 70.53 6.54Q70.97 5.84 71.32 5.43Q71.67 5.01 71.89 4.98L71.89 4.98Q72.04 5.01 72.22 5.10Q72.39 5.19 72.55 5.32Q72.70 5.45 72.83 5.60Q72.95 5.75 73.02 5.91L73.02 5.91Q72.51 6.09 71.91 6.76Q71.32 7.43 70.71 8.38Q70.11 9.32 69.55 10.44Q68.98 11.55 68.52 12.61Q68.07 13.68 67.75 14.60Q67.42 15.53 67.31 16.07ZM78.89 16.24L78.89 16.24Q78.22 16.04 77.96 15.85Q77.70 15.65 77.70 15.36L77.70 15.36Q77.70 15.13 77.83 14.73Q77.95 14.32 78.20 13.77Q78.44 13.22 78.78 12.54Q79.13 11.87 79.56 11.10L79.56 11.10Q79.20 11.09 78.91 11.08Q78.62 11.07 78.44 11.07L78.44 11.07Q78.53 10.86 78.92 10.71Q79.31 10.56 79.95 10.44L79.95 10.44Q80.50 9.53 81.12 8.71Q81.75 7.88 82.38 7.19Q83.01 6.50 83.64 5.97Q84.27 5.45 84.84 5.14L84.84 5.14Q84.85 5.04 84.86 4.97Q84.87 4.90 84.87 4.87L84.87 4.87Q85.06 4.87 85.39 4.97Q85.72 5.07 86.04 5.21Q86.35 5.35 86.60 5.49Q86.84 5.64 86.87 5.74L86.87 5.74Q86.41 6.55 85.96 8.17Q85.51 9.79 85.22 12.04L85.22 12.04Q85.15 12.60 85.10 13.31Q85.05 14.03 85.05 14.91L85.05 14.91Q85.05 15.22 85.05 15.54Q85.05 15.86 85.08 16.21L85.08 16.21Q85.05 16.23 85.02 16.23Q84.99 16.23 84.91 16.23L84.91 16.23Q84.71 16.23 84.45 16.16Q84.20 16.10 83.95 16.01Q83.71 15.92 83.53 15.81Q83.36 15.69 83.31 15.61L83.31 15.61Q83.30 15.43 83.30 15.25Q83.30 15.08 83.30 14.88L83.30 14.88Q83.30 14.01 83.36 13.12Q83.43 12.22 83.58 11.27L83.58 11.27Q83.38 11.26 83.06 11.23Q82.74 11.21 82.34 11.20Q81.94 11.19 81.49 11.16Q81.03 11.14 80.60 11.13L80.60 11.13Q80.26 11.76 79.97 12.38Q79.67 13.01 79.46 13.64L79.46 13.64Q79.23 14.31 79.08 14.98Q78.93 15.65 78.89 16.24ZM84.29 7.83L84.29 7.83Q84.35 7.63 84.43 7.29Q84.50 6.94 84.57 6.57L84.57 6.57Q84.22 6.69 83.80 7.03Q83.37 7.36 82.92 7.86Q82.46 8.36 81.99 8.98Q81.52 9.60 81.09 10.30L81.09 10.30Q82.26 10.21 83.76 10.18L83.76 10.18Q83.87 9.59 84.01 9.01Q84.14 8.43 84.29 7.83ZM96.45 6.69L96.45 6.69Q95.89 6.69 95.59 6.38Q95.28 6.06 95.28 5.61L95.28 5.61Q95.28 5.50 95.32 5.35Q95.35 5.19 95.41 5.08L95.41 5.08Q95.59 5.17 95.95 5.20Q96.31 5.24 96.78 5.24L96.78 5.24Q97.50 5.24 98.40 5.17Q99.30 5.11 100.13 5.04Q100.95 4.97 101.58 4.91Q102.21 4.84 102.40 4.84L102.40 4.84Q102.91 4.84 103.15 5.23Q103.38 5.61 103.49 6.26L103.49 6.26Q103.12 6.23 102.77 6.21Q102.41 6.19 102.16 6.19L102.16 6.19Q101.71 6.19 101.26 6.22Q100.80 6.24 100.34 6.30L100.34 6.30Q100.14 6.71 99.90 7.26Q99.67 7.81 99.44 8.41Q99.20 9.02 98.99 9.61Q98.78 10.21 98.63 10.68L98.63 10.68Q98.32 11.61 98.09 12.39Q97.86 13.17 97.69 13.85Q97.51 14.53 97.38 15.15Q97.26 15.76 97.16 16.35L97.16 16.35Q96.22 16.21 95.59 15.18L95.59 15.18Q95.70 14.74 95.87 14.23Q96.03 13.72 96.24 13.07Q96.46 12.42 96.75 11.59Q97.05 10.77 97.43 9.72L97.43 9.72Q97.57 9.32 97.72 8.90Q97.87 8.47 98.02 8.05Q98.17 7.63 98.29 7.24Q98.41 6.85 98.49 6.52L98.49 6.52Q97.90 6.59 97.38 6.64Q96.85 6.69 96.45 6.69ZM114.69 9.21L114.69 9.21Q115.15 9.21 115.41 9.46Q115.67 9.72 115.67 10.16L115.67 10.16Q115.67 10.28 115.65 10.39Q115.63 10.51 115.60 10.60L115.60 10.60Q115.42 10.57 115.19 10.55Q114.97 10.53 114.66 10.53L114.66 10.53Q114.06 10.53 113.44 10.63Q112.83 10.74 112.27 10.81L112.27 10.81Q111.94 11.55 111.68 12.24Q111.41 12.94 111.22 13.51Q111.03 14.08 110.93 14.50Q110.82 14.92 110.81 15.13L110.81 15.13Q111.94 14.90 113.10 14.73Q114.25 14.56 115.53 14.48L115.53 14.48Q115.68 14.71 115.79 14.99Q115.89 15.27 115.89 15.60L115.89 15.60Q115.89 15.68 115.89 15.78Q115.89 15.88 115.86 15.97L115.86 15.97Q115.47 15.96 115.04 15.95Q114.60 15.95 113.90 15.95L113.90 15.95Q113.44 15.95 113.03 15.97Q112.62 15.99 112.20 16.03Q111.78 16.07 111.31 16.14Q110.84 16.21 110.25 16.31L110.25 16.31Q109.61 16.06 109.00 15.08L109.00 15.08Q109.24 14.57 109.67 13.54Q110.10 12.52 110.75 10.79L110.75 10.79Q110.12 10.60 109.93 10.09L109.93 10.09Q110.00 10.02 110.33 9.92Q110.67 9.81 111.16 9.70L111.16 9.70Q111.37 9.16 111.52 8.75Q111.66 8.34 111.78 7.99Q111.89 7.63 111.98 7.29Q112.07 6.94 112.15 6.54L112.15 6.54Q111.66 6.51 111.38 6.27Q111.10 6.02 111.10 5.63L111.10 5.63Q111.10 5.52 111.14 5.36Q111.17 5.21 111.22 5.10L111.22 5.10Q111.50 5.14 111.76 5.15Q112.01 5.17 112.43 5.17L112.43 5.17Q113.32 5.17 114.09 5.12Q114.86 5.07 115.48 5.01Q116.10 4.96 116.55 4.91Q117.00 4.86 117.24 4.86L117.24 4.86Q117.56 4.86 117.81 5.19Q118.06 5.53 118.19 6.15L118.19 6.15Q117.75 6.10 117.48 6.09Q117.21 6.08 117.00 6.08L117.00 6.08Q116.23 6.08 115.59 6.15Q114.95 6.23 114.37 6.31L114.37 6.31Q114.28 6.44 114.18 6.64Q114.07 6.83 113.90 7.18Q113.74 7.53 113.49 8.06Q113.25 8.60 112.90 9.39L112.90 9.39Q113.43 9.31 113.90 9.26Q114.37 9.21 114.69 9.21ZM124.77 15.71L124.77 15.71Q124.54 15.68 124.30 15.52Q124.05 15.36 123.98 15.16L123.98 15.16Q123.98 14.99 124.03 14.73Q124.08 14.46 124.15 14.19Q124.22 13.92 124.29 13.67Q124.36 13.43 124.39 13.30L124.39 13.30Q124.56 13.30 124.82 13.38Q125.08 13.47 125.35 13.62Q125.62 13.76 125.87 13.95Q126.11 14.14 126.24 14.34L126.24 14.34Q126.11 14.62 125.92 14.87Q125.72 15.12 125.50 15.31Q125.29 15.50 125.09 15.60Q124.89 15.71 124.77 15.71ZM150.92 9.21L150.92 9.21Q151.38 9.21 151.64 9.46Q151.90 9.72 151.90 10.16L151.90 10.16Q151.90 10.28 151.88 10.39Q151.86 10.51 151.83 10.60L151.83 10.60Q151.65 10.57 151.42 10.55Q151.20 10.53 150.89 10.53L150.89 10.53Q150.29 10.53 149.67 10.63Q149.06 10.74 148.50 10.81L148.50 10.81Q148.18 11.55 147.91 12.24Q147.64 12.94 147.45 13.51Q147.27 14.08 147.16 14.50Q147.06 14.92 147.04 15.13L147.04 15.13Q148.18 14.90 149.33 14.73Q150.49 14.56 151.76 14.48L151.76 14.48Q151.91 14.71 152.02 14.99Q152.12 15.27 152.12 15.60L152.12 15.60Q152.12 15.68 152.12 15.78Q152.12 15.88 152.10 15.97L152.10 15.97Q151.70 15.96 151.27 15.95Q150.84 15.95 150.14 15.95L150.14 15.95Q149.67 15.95 149.26 15.97Q148.85 15.99 148.43 16.03Q148.01 16.07 147.54 16.14Q147.07 16.21 146.48 16.31L146.48 16.31Q145.84 16.06 145.24 15.08L145.24 15.08Q145.47 14.57 145.90 13.54Q146.33 12.52 146.99 10.79L146.99 10.79Q146.36 10.60 146.16 10.09L146.16 10.09Q146.23 10.02 146.57 9.92Q146.90 9.81 147.39 9.70L147.39 9.70Q147.60 9.16 147.75 8.75Q147.90 8.34 148.01 7.99Q148.12 7.63 148.21 7.29Q148.30 6.94 148.39 6.54L148.39 6.54Q147.90 6.51 147.62 6.27Q147.34 6.02 147.34 5.63L147.34 5.63Q147.34 5.52 147.37 5.36Q147.41 5.21 147.45 5.10L147.45 5.10Q147.73 5.14 147.99 5.15Q148.25 5.17 148.67 5.17L148.67 5.17Q149.55 5.17 150.32 5.12Q151.09 5.07 151.71 5.01Q152.33 4.96 152.78 4.91Q153.23 4.86 153.47 4.86L153.47 4.86Q153.79 4.86 154.04 5.19Q154.29 5.53 154.42 6.15L154.42 6.15Q153.99 6.10 153.71 6.09Q153.44 6.08 153.23 6.08L153.23 6.08Q152.46 6.08 151.82 6.15Q151.19 6.23 150.60 6.31L150.60 6.31Q150.51 6.44 150.41 6.64Q150.30 6.83 150.14 7.18Q149.97 7.53 149.72 8.06Q149.48 8.60 149.13 9.39L149.13 9.39Q149.66 9.31 150.13 9.26Q150.60 9.21 150.92 9.21ZM168.31 15.23L168.31 15.23Q168.18 15.36 167.94 15.52Q167.69 15.68 167.41 15.81Q167.13 15.95 166.84 16.05Q166.56 16.16 166.38 16.17L166.38 16.17Q166.19 16.17 166.05 16.03Q165.91 15.89 165.76 15.39Q165.61 14.90 165.40 13.95Q165.20 13.01 164.89 11.38L164.89 11.38Q164.09 12.21 163.41 12.98Q162.72 13.75 162.23 14.41Q161.74 15.06 161.46 15.55Q161.18 16.04 161.18 16.30L161.18 16.30Q161.01 16.28 160.84 16.17Q160.66 16.06 160.52 15.90Q160.38 15.75 160.29 15.57Q160.20 15.39 160.20 15.22L160.20 15.22Q160.24 15.06 160.41 14.78Q160.58 14.50 160.83 14.18L160.83 14.18Q161.36 13.50 162.35 12.59Q163.34 11.69 164.74 10.60L164.74 10.60Q163.83 6.08 162.16 6.08L162.16 6.08Q162.33 5.67 162.70 5.36Q163.07 5.05 163.49 4.98L163.49 4.98Q163.95 4.98 164.25 5.10Q164.54 5.22 164.78 5.70Q165.02 6.17 165.26 7.13Q165.49 8.09 165.86 9.76L165.86 9.76Q166.32 9.27 166.75 8.76Q167.17 8.25 167.54 7.77Q167.90 7.29 168.18 6.89Q168.46 6.48 168.62 6.19L168.62 6.19Q168.77 5.92 168.77 5.64L168.77 5.64Q168.77 5.39 168.62 4.98L168.62 4.98Q169.06 5.25 169.29 5.48Q169.53 5.71 169.69 6.12L169.69 6.12Q169.67 6.45 169.50 6.79Q169.34 7.13 168.94 7.59Q168.55 8.06 167.85 8.75Q167.15 9.44 166.01 10.46L166.01 10.46Q166.28 11.72 166.53 12.59Q166.78 13.45 167.05 14.01Q167.31 14.56 167.62 14.85Q167.93 15.13 168.31 15.23ZM176.78 12.43L176.78 12.43Q176.78 11.45 177.01 10.51Q177.24 9.56 177.66 8.71Q178.08 7.87 178.66 7.16Q179.24 6.45 179.94 5.94Q180.63 5.42 181.41 5.13Q182.20 4.84 183.02 4.84L183.02 4.84Q183.99 4.84 184.53 5.25Q185.07 5.66 185.07 6.38L185.07 6.38Q185.07 6.66 184.99 6.96Q184.91 7.25 184.77 7.54Q184.62 7.83 184.42 8.09Q184.23 8.36 183.99 8.55L183.99 8.55Q183.62 8.50 183.36 8.22Q183.09 7.95 183.02 7.59L183.02 7.59Q183.51 7.18 183.80 6.74Q184.09 6.30 184.09 5.94L184.09 5.94Q184.09 5.32 183.32 5.32L183.32 5.32Q182.99 5.32 182.65 5.45Q182.31 5.59 181.96 5.82Q181.61 6.06 181.28 6.40Q180.95 6.73 180.67 7.14L180.67 7.14Q178.72 9.94 178.72 12.87L178.72 12.87Q178.72 13.90 179.05 14.53Q179.37 15.16 179.90 15.27L179.90 15.27Q180.50 15.13 181.43 14.50Q182.35 13.87 183.44 12.87L183.44 12.87Q183.58 13.01 183.61 13.16L183.61 13.16Q183.20 13.69 182.77 14.18Q182.34 14.67 181.91 15.08Q181.48 15.48 181.07 15.79Q180.66 16.10 180.31 16.27L180.31 16.27Q178.57 16.24 177.67 15.27Q176.78 14.31 176.78 12.43ZM197.37 9.21L197.37 9.21Q197.83 9.21 198.09 9.46Q198.35 9.72 198.35 10.16L198.35 10.16Q198.35 10.28 198.33 10.39Q198.31 10.51 198.28 10.60L198.28 10.60Q198.10 10.57 197.88 10.55Q197.65 10.53 197.34 10.53L197.34 10.53Q196.74 10.53 196.13 10.63Q195.51 10.74 194.95 10.81L194.95 10.81Q194.63 11.55 194.36 12.24Q194.10 12.94 193.91 13.51Q193.72 14.08 193.61 14.50Q193.51 14.92 193.49 15.13L193.49 15.13Q194.63 14.90 195.78 14.73Q196.94 14.56 198.21 14.48L198.21 14.48Q198.37 14.71 198.47 14.99Q198.58 15.27 198.58 15.60L198.58 15.60Q198.58 15.68 198.58 15.78Q198.58 15.88 198.55 15.97L198.55 15.97Q198.16 15.96 197.72 15.95Q197.29 15.95 196.59 15.95L196.59 15.95Q196.13 15.95 195.71 15.97Q195.30 15.99 194.88 16.03Q194.46 16.07 193.99 16.14Q193.52 16.21 192.93 16.31L192.93 16.31Q192.29 16.06 191.69 15.08L191.69 15.08Q191.93 14.57 192.35 13.54Q192.78 12.52 193.44 10.79L193.44 10.79Q192.81 10.60 192.61 10.09L192.61 10.09Q192.68 10.02 193.02 9.92Q193.35 9.81 193.84 9.70L193.84 9.70Q194.05 9.16 194.20 8.75Q194.35 8.34 194.46 7.99Q194.57 7.63 194.66 7.29Q194.75 6.94 194.84 6.54L194.84 6.54Q194.35 6.51 194.07 6.27Q193.79 6.02 193.79 5.63L193.79 5.63Q193.79 5.52 193.82 5.36Q193.86 5.21 193.90 5.10L193.90 5.10Q194.18 5.14 194.44 5.15Q194.70 5.17 195.12 5.17L195.12 5.17Q196.00 5.17 196.77 5.12Q197.54 5.07 198.16 5.01Q198.79 4.96 199.23 4.91Q199.68 4.86 199.92 4.86L199.92 4.86Q200.24 4.86 200.49 5.19Q200.75 5.53 200.87 6.15L200.87 6.15Q200.44 6.10 200.17 6.09Q199.89 6.08 199.68 6.08L199.68 6.08Q198.91 6.08 198.28 6.15Q197.64 6.23 197.05 6.31L197.05 6.31Q196.97 6.44 196.86 6.64Q196.76 6.83 196.59 7.18Q196.42 7.53 196.18 8.06Q195.93 8.60 195.58 9.39L195.58 9.39Q196.11 9.31 196.58 9.26Q197.05 9.21 197.37 9.21ZM212.32 14.38L212.32 14.38Q212.67 14.98 212.67 15.54L212.67 15.54Q212.67 15.67 212.65 15.77Q212.63 15.88 212.60 15.99L212.60 15.99Q212.37 15.96 212.11 15.95Q211.85 15.93 211.57 15.93L211.57 15.93Q211.23 15.93 210.89 15.95Q210.55 15.97 210.13 16.02Q209.71 16.06 209.19 16.13Q208.67 16.20 207.98 16.31L207.98 16.31Q207.66 16.20 207.34 15.87Q207.02 15.54 206.74 15.08L206.74 15.08Q206.88 14.77 207.09 14.31Q207.30 13.86 207.58 13.21Q207.86 12.56 208.20 11.68Q208.54 10.81 208.94 9.66L208.94 9.66Q209.19 8.90 209.37 8.33Q209.55 7.76 209.70 7.22Q209.85 6.68 209.99 6.09Q210.13 5.50 210.29 4.73L210.29 4.73Q210.85 4.84 211.27 5.14Q211.68 5.45 212.06 6.01L212.06 6.01Q211.95 6.19 211.76 6.59Q211.58 7 211.34 7.58Q211.09 8.16 210.80 8.90Q210.50 9.63 210.18 10.47L210.18 10.47Q209.87 11.30 209.58 12.03Q209.29 12.75 209.06 13.34Q208.82 13.93 208.68 14.35Q208.54 14.77 208.54 14.98L208.54 14.98Q208.77 14.97 208.95 14.95Q209.13 14.94 209.33 14.90Q209.52 14.87 209.76 14.82Q209.99 14.77 210.31 14.69L210.31 14.69Q210.59 14.62 210.83 14.57Q211.06 14.52 211.30 14.48Q211.53 14.45 211.77 14.43Q212.02 14.41 212.32 14.38ZM221.45 15.71L221.45 15.71Q221.23 15.68 220.98 15.52Q220.74 15.36 220.67 15.16L220.67 15.16Q220.67 14.99 220.72 14.73Q220.77 14.46 220.84 14.19Q220.91 13.92 220.98 13.67Q221.05 13.43 221.07 13.30L221.07 13.30Q221.24 13.30 221.50 13.38Q221.76 13.47 222.03 13.62Q222.31 13.76 222.55 13.95Q222.80 14.14 222.92 14.34L222.92 14.34Q222.80 14.62 222.60 14.87Q222.40 15.12 222.19 15.31Q221.97 15.50 221.77 15.60Q221.58 15.71 221.45 15.71ZM247.03 14.38L247.03 14.38Q247.38 14.98 247.38 15.54L247.38 15.54Q247.38 15.67 247.36 15.77Q247.34 15.88 247.31 15.99L247.31 15.99Q247.07 15.96 246.81 15.95Q246.55 15.93 246.27 15.93L246.27 15.93Q245.94 15.93 245.60 15.95Q245.25 15.97 244.83 16.02Q244.41 16.06 243.89 16.13Q243.38 16.20 242.69 16.31L242.69 16.31Q242.37 16.20 242.05 15.87Q241.72 15.54 241.44 15.08L241.44 15.08Q241.58 14.77 241.79 14.31Q242.00 13.86 242.28 13.21Q242.56 12.56 242.91 11.68Q243.25 10.81 243.64 9.66L243.64 9.66Q243.89 8.90 244.08 8.33Q244.26 7.76 244.41 7.22Q244.55 6.68 244.69 6.09Q244.83 5.50 245.00 4.73L245.00 4.73Q245.56 4.84 245.97 5.14Q246.39 5.45 246.76 6.01L246.76 6.01Q246.65 6.19 246.47 6.59Q246.29 7 246.04 7.58Q245.80 8.16 245.50 8.90Q245.21 9.63 244.89 10.47L244.89 10.47Q244.58 11.30 244.29 12.03Q243.99 12.75 243.76 13.34Q243.53 13.93 243.39 14.35Q243.25 14.77 243.25 14.98L243.25 14.98Q243.47 14.97 243.66 14.95Q243.84 14.94 244.03 14.90Q244.23 14.87 244.46 14.82Q244.69 14.77 245.01 14.69L245.01 14.69Q245.29 14.62 245.53 14.57Q245.77 14.52 246.00 14.48Q246.23 14.45 246.48 14.43Q246.72 14.41 247.03 14.38ZM261.45 9.21L261.45 9.21Q261.91 9.21 262.17 9.46Q262.43 9.72 262.43 10.16L262.43 10.16Q262.43 10.28 262.41 10.39Q262.39 10.51 262.36 10.60L262.36 10.60Q262.18 10.57 261.95 10.55Q261.73 10.53 261.42 10.53L261.42 10.53Q260.82 10.53 260.20 10.63Q259.59 10.74 259.03 10.81L259.03 10.81Q258.71 11.55 258.44 12.24Q258.17 12.94 257.99 13.51Q257.80 14.08 257.69 14.50Q257.59 14.92 257.57 15.13L257.57 15.13Q258.71 14.90 259.86 14.73Q261.02 14.56 262.29 14.48L262.29 14.48Q262.44 14.71 262.55 14.99Q262.65 15.27 262.65 15.60L262.65 15.60Q262.65 15.68 262.65 15.78Q262.65 15.88 262.63 15.97L262.63 15.97Q262.23 15.96 261.80 15.95Q261.37 15.95 260.67 15.95L260.67 15.95Q260.20 15.95 259.79 15.97Q259.38 15.99 258.96 16.03Q258.54 16.07 258.07 16.14Q257.60 16.21 257.01 16.31L257.01 16.31Q256.37 16.06 255.77 15.08L255.77 15.08Q256.00 14.57 256.43 13.54Q256.86 12.52 257.52 10.79L257.52 10.79Q256.89 10.60 256.69 10.09L256.69 10.09Q256.76 10.02 257.10 9.92Q257.43 9.81 257.92 9.70L257.92 9.70Q258.13 9.16 258.28 8.75Q258.43 8.34 258.54 7.99Q258.65 7.63 258.74 7.29Q258.83 6.94 258.92 6.54L258.92 6.54Q258.43 6.51 258.15 6.27Q257.87 6.02 257.87 5.63L257.87 5.63Q257.87 5.52 257.90 5.36Q257.94 5.21 257.98 5.10L257.98 5.10Q258.26 5.14 258.52 5.15Q258.78 5.17 259.20 5.17L259.20 5.17Q260.08 5.17 260.85 5.12Q261.62 5.07 262.24 5.01Q262.86 4.96 263.31 4.91Q263.76 4.86 264.00 4.86L264.00 4.86Q264.32 4.86 264.57 5.19Q264.82 5.53 264.95 6.15L264.95 6.15Q264.52 6.10 264.24 6.09Q263.97 6.08 263.76 6.08L263.76 6.08Q262.99 6.08 262.35 6.15Q261.72 6.23 261.13 6.31L261.13 6.31Q261.04 6.44 260.94 6.64Q260.83 6.83 260.67 7.18Q260.50 7.53 260.25 8.06Q260.01 8.60 259.66 9.39L259.66 9.39Q260.19 9.31 260.66 9.26Q261.13 9.21 261.45 9.21ZM271.82 16.24L271.82 16.24Q271.15 16.04 270.89 15.85Q270.63 15.65 270.63 15.36L270.63 15.36Q270.63 15.13 270.76 14.73Q270.89 14.32 271.13 13.77Q271.38 13.22 271.72 12.54Q272.06 11.87 272.50 11.10L272.50 11.10Q272.13 11.09 271.85 11.08Q271.56 11.07 271.38 11.07L271.38 11.07Q271.46 10.86 271.85 10.71Q272.24 10.56 272.89 10.44L272.89 10.44Q273.43 9.53 274.06 8.71Q274.68 7.88 275.31 7.19Q275.94 6.50 276.57 5.97Q277.20 5.45 277.77 5.14L277.77 5.14Q277.79 5.04 277.80 4.97Q277.80 4.90 277.80 4.87L277.80 4.87Q278.00 4.87 278.33 4.97Q278.66 5.07 278.97 5.21Q279.29 5.35 279.53 5.49Q279.78 5.64 279.80 5.74L279.80 5.74Q279.34 6.55 278.89 8.17Q278.45 9.79 278.15 12.04L278.15 12.04Q278.08 12.60 278.03 13.31Q277.98 14.03 277.98 14.91L277.98 14.91Q277.98 15.22 277.98 15.54Q277.98 15.86 278.01 16.21L278.01 16.21Q277.98 16.23 277.96 16.23Q277.93 16.23 277.84 16.23L277.84 16.23Q277.65 16.23 277.39 16.16Q277.13 16.10 276.89 16.01Q276.64 15.92 276.47 15.81Q276.29 15.69 276.25 15.61L276.25 15.61Q276.23 15.43 276.23 15.25Q276.23 15.08 276.23 14.88L276.23 14.88Q276.23 14.01 276.30 13.12Q276.36 12.22 276.51 11.27L276.51 11.27Q276.32 11.26 276.00 11.23Q275.67 11.21 275.28 11.20Q274.88 11.19 274.42 11.16Q273.97 11.14 273.53 11.13L273.53 11.13Q273.20 11.76 272.90 12.38Q272.61 13.01 272.40 13.64L272.40 13.64Q272.16 14.31 272.01 14.98Q271.87 15.65 271.82 16.24ZM277.23 7.83L277.23 7.83Q277.28 7.63 277.36 7.29Q277.44 6.94 277.51 6.57L277.51 6.57Q277.16 6.69 276.73 7.03Q276.30 7.36 275.85 7.86Q275.39 8.36 274.93 8.98Q274.46 9.60 274.02 10.30L274.02 10.30Q275.20 10.21 276.70 10.18L276.70 10.18Q276.81 9.59 276.94 9.01Q277.07 8.43 277.23 7.83ZM288.12 14.45L288.12 14.45Q288.33 13.99 288.62 13.26Q288.92 12.53 289.24 11.68Q289.56 10.84 289.90 9.95Q290.23 9.06 290.53 8.26Q290.82 7.46 291.04 6.83Q291.26 6.20 291.35 5.87L291.35 5.87Q290.47 6.23 289.84 6.97Q289.21 7.71 288.89 8.83L288.89 8.83Q288.57 8.72 288.30 8.43Q288.04 8.15 287.95 7.71L287.95 7.71Q288.09 7.07 288.48 6.54Q288.86 6.01 289.45 5.63Q290.04 5.25 290.81 5.05Q291.58 4.84 292.46 4.84L292.46 4.84Q293.58 4.84 294.52 5.17Q295.46 5.50 296.13 6.09Q296.80 6.68 297.18 7.50Q297.56 8.33 297.56 9.34L297.56 9.34Q297.56 10.71 297.05 11.96Q296.55 13.20 295.69 14.15Q294.83 15.11 293.69 15.67Q292.56 16.24 291.31 16.24L291.31 16.24Q290.16 16.24 289.35 15.79Q288.53 15.33 288.12 14.45ZM293.06 5.54L293.06 5.54Q292.36 5.54 291.73 5.74L291.73 5.74Q292.35 5.96 292.75 6.21Q293.16 6.45 293.31 6.59L293.31 6.59Q293.20 6.75 292.99 7.14Q292.77 7.53 292.48 8.09Q292.19 8.65 291.87 9.32Q291.55 9.98 291.24 10.68L291.24 10.68Q290.44 12.46 290.09 13.48Q289.73 14.50 289.73 14.90L289.73 14.90Q289.93 14.97 290.21 14.99Q290.49 15.02 290.81 15.02L290.81 15.02Q291.94 15.02 292.96 14.50Q293.97 13.97 294.74 13.09Q295.50 12.21 295.94 11.04Q296.38 9.87 296.38 8.58L296.38 8.58Q296.38 7.14 295.48 6.34Q294.59 5.54 293.06 5.54ZM305.41 15.71L305.41 15.71Q305.19 15.68 304.94 15.52Q304.70 15.36 304.63 15.16L304.63 15.16Q304.63 14.99 304.68 14.73Q304.72 14.46 304.79 14.19Q304.86 13.92 304.93 13.67Q305.00 13.43 305.03 13.30L305.03 13.30Q305.20 13.30 305.46 13.38Q305.72 13.47 305.99 13.62Q306.26 13.76 306.51 13.95Q306.75 14.14 306.88 14.34L306.88 14.34Q306.75 14.62 306.56 14.87Q306.36 15.12 306.15 15.31Q305.93 15.50 305.73 15.60Q305.54 15.71 305.41 15.71ZM314.87 15.18L314.87 5.18L319.41 5.18L319.41 15.18L314.87 15.18ZM315.38 5.60L315.38 14.76L318.91 14.76L318.91 5.60L315.38 5.60Z"></path></g></svg>